<?xml version="1.0" encoding="UTF-8"?>
<svg id="Layer_1" data-name="Layer 1" xmlns="http://www.w3.org/2000/svg" viewBox="0 0 200 180.8">
  <defs>
    <style>
      .cls-1 {
        fill: #063a58;
      }
    </style>
  </defs>
  <path class="cls-1" d="M.05,180.8v-86.18c-.38-12.39,1.41-24.03,5.35-34.92,3.94-10.89,9.48-20.46,16.62-28.73,7.13-8.25,15.67-15.11,25.63-20.56C57.59,4.98,68.39,1.5,80.03,0v37.17c-14.27,4.88-24.03,12.11-29.29,21.68-5.26,9.57-7.89,21.32-7.89,35.2h37.17v86.74H.05ZM120.02,180.8v-86.18c-.38-12.39,1.41-24.03,5.35-34.92,3.94-10.89,9.48-20.46,16.61-28.73,7.13-8.25,15.67-15.11,25.63-20.56,9.94-5.44,20.74-8.92,32.39-10.42v37.17c-14.27,4.88-24.04,12.11-29.29,21.68-5.26,9.57-7.89,21.32-7.89,35.2h37.17v86.74h-79.98Z"/>
</svg>