<?xml version="1.0" encoding="UTF-8"?>
<svg id="Layer_1" data-name="Layer 1" xmlns="http://www.w3.org/2000/svg" xmlns:xlink="http://www.w3.org/1999/xlink" viewBox="0 0 31.82 28.86">
  <defs>
    <style>
      .cls-1 {
        fill: none;
      }

      .cls-2 {
        fill: #fff;
      }

      .cls-3 {
        clip-path: url(#clippath);
      }
    </style>
    <clipPath id="clippath">
      <rect class="cls-1" x="0" y="0" width="31.82" height="28.86"/>
    </clipPath>
  </defs>
  <g class="cls-3">
    <path class="cls-2" d="M26.27,20.71c-.96-.37-1.84-.12-2.4.15.24.56.71,1.33,1.66,1.7.96.37,1.85.12,2.4-.15-.24-.56-.71-1.33-1.66-1.7M5.56,20.71c-.95.37-1.43,1.14-1.66,1.7.56.27,1.43.52,2.4.15.95-.36,1.42-1.14,1.66-1.7-.56-.27-1.44-.52-2.4-.15M8.83,2.49c-.55.36-1.27,1.02-1.47,2.12-.19,1.09.28,2,.67,2.53.55-.36,1.27-1.02,1.47-2.12.19-1.1-.28-2-.67-2.53M23,2.49c-.4.53-.86,1.42-.67,2.53.19,1.1.92,1.76,1.46,2.12.4-.53.86-1.42.67-2.53-.19-1.09-.92-1.76-1.46-2.11M26.92,12.07c-.9.89-1.03,2.03-1,2.74h-.01c.7.03,1.8-.07,2.69-.95.9-.9,1.04-2.03,1.02-2.74-.7-.03-1.81.07-2.69.95M2.23,11.1c-.03.71.1,1.85,1.01,2.74.89.89,2,.99,2.69.95.03-.71-.1-1.85-1.01-2.74-.89-.89-2-.99-2.69-.95M9.79.26c.1.09,2.43,2.09,1.89,5.14-.42,2.4-2.25,3.56-3.11,3.97-.29,1.03-.44,2.1-.44,3.2,0,5.22,3.34,9.48,7.52,9.64.09,0,.18-.01.27-.01s.17,0,.26,0c4.16-.18,7.5-4.44,7.5-9.64,0-1.1-.14-2.17-.44-3.2-.86-.43-2.66-1.59-3.08-3.96-.53-3.06,1.79-5.06,1.89-5.13.3-.25.71-.33,1.08-.19h0c.18.07,2.99,1.11,3.53,4.16.37,2.1-.61,3.7-1.3,4.53.13.47.24.94.32,1.42,2.24-1.89,4.99-1.17,5.21-1.11h.01c.37.11.67.42.77.79h0c.05.24.76,3.31-1.53,5.56-1.31,1.3-2.86,1.6-4,1.6-.39,0-.72-.04-.98-.08-.16.48-.35.95-.56,1.4.73-.1,1.57-.05,2.46.29,2.56.99,3.15,3.52,3.25,4.03v.05s.02.03.02.04c.06.38-.09.77-.4,1.02h0c-.09.08-1.49,1.2-3.42,1.2h0c-.56-.01-1.15-.1-1.78-.34-1.52-.59-2.35-1.72-2.79-2.65-.88.8-1.88,1.44-2.96,1.86,1.21,1.51,1.69,3.53,1.71,3.66.13.59-.24,1.18-.83,1.33-.59.13-1.2-.24-1.33-.83-.22-.93-1.15-3.58-2.62-3.58h0c-1.46.01-2.43,2.83-2.61,3.58-.11.47-.49.79-.93.85h-.15c-.07.01-.16.01-.25-.02-.59-.13-.98-.72-.83-1.33.03-.14.5-2.15,1.7-3.65-1.08-.42-2.09-1.05-2.97-1.86-.44.93-1.27,2.05-2.79,2.63-.62.24-1.23.33-1.78.33h0c-1.94.01-3.34-1.11-3.42-1.18-.3-.25-.44-.64-.4-1.02.01-.12.47-3.05,3.27-4.11.88-.34,1.71-.38,2.44-.28-.21-.45-.4-.91-.56-1.39-.26.04-.59.07-.97.07-1.12,0-2.69-.3-4-1.6C-.61,13.17.09,10.1.14,9.87h0c.1-.4.38-.69.77-.79h.02c.3-.08,3-.75,5.19,1.1.08-.49.19-.98.33-1.46-.68-.83-1.65-2.42-1.28-4.5C5.71,1.15,8.58.11,8.71.07c.37-.13.78-.06,1.08.19"/>
  </g>
</svg>